<svg width="22" height="22" viewBox="0 0 22 22" fill="none" xmlns="http://www.w3.org/2000/svg">
<path d="M9.9799 11.0034L0.53686 20.5127C0.274516 20.7769 0.274516 21.2049 0.53686 21.4691C0.667865 21.6014 0.839872 21.6672 1.01154 21.6672C1.18355 21.6672 1.35522 21.6014 1.48623 21.4691L11.0003 11.8882L20.5143 21.4691C20.6456 21.6014 20.8173 21.6672 20.989 21.6672C21.1607 21.6672 21.3327 21.6014 21.4637 21.4691C21.726 21.2049 21.726 20.7769 21.4637 20.5127L12.021 11.0034L21.47 1.48727C21.7324 1.22309 21.7324 0.795083 21.47 0.530896C21.2077 0.267045 20.7827 0.267045 20.5206 0.530896L11.0006 10.1185L1.47956 0.531232C1.21722 0.267381 0.792536 0.267381 0.530193 0.531232C0.267849 0.795418 0.267849 1.22342 0.530193 1.48761L9.9799 11.0034Z" fill="#1D1D1B"/>
</svg>
