<svg width="42" height="39" viewBox="0 0 42 39" fill="none" xmlns="http://www.w3.org/2000/svg">
<path d="M29.7198 0.554688C27.7698 0.554688 25.9059 1.00248 24.1803 1.88572C23.0056 2.48685 21.9265 3.28552 21.0006 4.23312C20.0746 3.28552 18.9956 2.48685 17.8209 1.88572C16.0952 1.00248 14.2314 0.554688 12.2813 0.554688C5.55842 0.554688 0.0888672 6.03355 0.0888672 12.7679C0.0888672 17.5378 2.60371 22.6037 7.56344 27.8253C11.7046 32.185 16.7746 35.8192 20.2985 38.1002L21.0006 38.5547L21.7026 38.1002C25.2266 35.8193 30.2966 32.185 34.4378 27.8253C39.3975 22.6037 41.9123 17.5378 41.9123 12.7679C41.9123 6.03355 36.4427 0.554688 29.7198 0.554688ZM32.5636 26.0389C28.8626 29.9352 24.3545 33.2476 21.0006 35.4644C17.6467 33.2475 13.1385 29.9352 9.43765 26.0389C4.95082 21.3155 2.67588 16.8505 2.67588 12.7679C2.67588 7.46245 6.9849 3.1461 12.2814 3.1461C15.3307 3.1461 18.1318 4.54918 19.9664 6.99548L21.0006 8.37454L22.0348 6.99548C23.8693 4.54918 26.6704 3.1461 29.7198 3.1461C35.0162 3.1461 39.3253 7.46245 39.3253 12.7679C39.3253 16.8505 37.0502 21.3155 32.5636 26.0389Z" fill="white"/>
</svg>
