<svg width="18" height="18" viewBox="0 0 18 18" fill="none" xmlns="http://www.w3.org/2000/svg">
<path d="M16.0235 15.4125L12.5616 11.9506C13.4197 10.9044 13.9369 9.5643 13.9369 8.10373C13.9369 4.75352 11.2186 2.03516 7.86838 2.03516C4.51523 2.03516 1.7998 4.75352 1.7998 8.10373C1.7998 11.4539 4.51523 14.1723 7.86838 14.1723C9.32895 14.1723 10.6661 13.658 11.7123 12.7999L15.1742 16.2588C15.4093 16.4939 15.7884 16.4939 16.0235 16.2588C16.2586 16.0267 16.2586 15.6446 16.0235 15.4125ZM7.86838 12.9645C5.18527 12.9645 3.0047 10.7839 3.0047 8.10373C3.0047 5.42356 5.18527 3.24005 7.86838 3.24005C10.5485 3.24005 12.7321 5.42356 12.7321 8.10373C12.7321 10.7839 10.5485 12.9645 7.86838 12.9645Z" fill="white"/>
</svg>
