<svg width="18" height="18" viewBox="0 0 18 18" fill="none" xmlns="http://www.w3.org/2000/svg">
<path d="M15.8668 3.37203C15.0092 2.51435 13.8737 2.04557 12.6618 2.04557C11.45 2.04557 10.311 2.51782 9.45334 3.3755L9.00541 3.82344L8.55052 3.36855C7.69284 2.51087 6.55043 2.03516 5.33856 2.03516C4.13017 2.03516 2.99123 2.5074 2.13702 3.36161C1.27934 4.21929 0.807093 5.35823 0.810566 6.5701C0.810566 7.78196 1.28628 8.91743 2.14396 9.77511L8.66511 16.2963C8.75539 16.3865 8.87693 16.4352 8.99499 16.4352C9.11305 16.4352 9.23458 16.39 9.32487 16.2997L15.8599 9.789C16.7176 8.93132 17.1898 7.79238 17.1898 6.58051C17.1933 5.36865 16.7245 4.22971 15.8668 3.37203ZM15.2002 9.12578L8.99499 15.3066L2.80372 9.11536C2.12313 8.43477 1.74811 7.53195 1.74811 6.5701C1.74811 5.60825 2.11966 4.70542 2.80025 4.02831C3.47736 3.35119 4.38018 2.97617 5.33856 2.97617C6.30041 2.97617 7.20671 3.35119 7.8873 4.03178L8.67206 4.81654C8.85609 5.00058 9.15125 5.00058 9.33528 4.81654L10.1131 4.03873C10.7937 3.35814 11.7 2.98312 12.6584 2.98312C13.6167 2.98312 14.5196 3.35814 15.2002 4.03525C15.8807 4.71584 16.2523 5.61866 16.2523 6.58051C16.2558 7.54237 15.8807 8.44519 15.2002 9.12578Z" fill="white"/>
</svg>
